<svg width="24" height="16" viewBox="0 0 24 16" fill="none" xmlns="http://www.w3.org/2000/svg">
<path d="M19.75 8C19.75 12.2812 16.25 15.75 12 15.75C10.1562 15.7812 8.4375 15.125 7.125 14.0625C6.78125 13.7812 6.75 13.25 7.0625 12.9375L7.40625 12.5938C7.6875 12.3125 8.125 12.2812 8.40625 12.5312C9.40625 13.3125 10.625 13.75 12 13.75C15.1562 13.75 17.75 11.1875 17.75 8C17.75 4.84375 15.1562 2.25 12 2.25C10.4688 2.25 9.0625 2.84375 8.03125 3.8125L9.625 5.40625C9.9375 5.71875 9.71875 6.25 9.28125 6.25H4.75C4.46875 6.25 4.25 6.03125 4.25 5.75V1.21875C4.25 0.78125 4.78125 0.5625 5.09375 0.875L6.625 2.40625C8.03125 1.09375 9.90625 0.25 12 0.25C16.25 0.25 19.7188 3.71875 19.75 8ZM14.0938 10.4688C13.8125 10.7812 13.3438 10.8438 13.0312 10.5938L11 9V4.75C11 4.34375 11.3125 4 11.75 4H12.25C12.6562 4 13 4.34375 13 4.75V8.03125L14.25 9.03125C14.5938 9.28125 14.6562 9.75 14.375 10.0625L14.0938 10.4688Z" fill="#E5E7EB"/>
</svg>
