<svg width="94" height="30" viewBox="0 0 94 30" fill="none" xmlns="http://www.w3.org/2000/svg">
<path fill-rule="evenodd" clip-rule="evenodd" d="M6.18637 16.4865C4.45052 4.26941 22.3271 2.29169 24.0626 13.6049C25.9141 25.674 7.81613 27.957 6.18637 16.4865ZM12.1357 29.8165C28.4142 32.026 35.6704 13.7408 25.6294 4.20386C18.5776 -2.49408 6.55978 -1.20691 1.68689 8.19932C0.309674 10.8577 -0.51854 14.6115 0.365645 18.018L6.06551 18.0496L6.05942 24.0847L3.23114 24.1077C3.78747 25.1529 5.08564 26.4591 6.06166 26.8984L6.14046 24.0824L12.1043 24.1688L12.1357 29.8165Z" fill="#F9FEFA"/>
<path d="M35.0918 24.7728V10.1988H38.927V12.7202H39.0597C39.3252 11.8313 39.7675 11.1625 40.3868 10.7136C41.0061 10.256 41.7404 10.0272 42.5897 10.0272C42.8021 10.0272 43.0232 10.036 43.2533 10.0536C43.4833 10.0712 43.6823 10.0976 43.8504 10.1328V13.6179C43.6823 13.5651 43.4302 13.5255 43.094 13.4991C42.7667 13.4639 42.4482 13.4463 42.1385 13.4463C41.5546 13.4463 41.0238 13.5739 40.5461 13.8291C40.0772 14.0843 39.71 14.4451 39.4446 14.9116C39.1792 15.378 39.0465 15.9281 39.0465 16.5617V24.7728H35.0918Z" fill="white"/>
<path d="M54.5598 25.0236C53.799 25.0236 53.1398 24.9004 52.5825 24.654C52.034 24.3988 51.5783 24.0775 51.2156 23.6903C50.8529 23.2943 50.5698 22.885 50.3663 22.4626H50.207V24.7728H46.3188V5.10318H50.2734V12.5618H50.3796C50.5919 12.1394 50.875 11.7345 51.2289 11.3473C51.5828 10.9513 52.034 10.6256 52.5825 10.3704C53.131 10.1152 53.799 9.98758 54.5863 9.98758C55.7099 9.98758 56.7229 10.278 57.6253 10.8589C58.5366 11.4309 59.262 12.2758 59.8017 13.3935C60.3414 14.5024 60.6112 15.8709 60.6112 17.499C60.6112 19.1007 60.3458 20.4604 59.815 21.5781C59.293 22.6958 58.5764 23.5495 57.6651 24.1391C56.7539 24.7288 55.7188 25.0236 54.5598 25.0236ZM53.3787 21.8554C54.0688 21.8554 54.6483 21.6749 55.1172 21.3141C55.5861 20.9445 55.9399 20.434 56.1788 19.7828C56.4265 19.1227 56.5504 18.3571 56.5504 17.4858C56.5504 16.6233 56.4265 15.8665 56.1788 15.2152C55.9399 14.564 55.5861 14.0579 55.1172 13.6971C54.6483 13.3363 54.0688 13.1558 53.3787 13.1558C52.7063 13.1558 52.1269 13.3363 51.6403 13.6971C51.1625 14.0491 50.7954 14.5508 50.5388 15.202C50.2911 15.8445 50.1672 16.6057 50.1672 17.4858C50.1672 18.3659 50.2955 19.1315 50.5521 19.7828C50.8086 20.434 51.1758 20.9445 51.6535 21.3141C52.1401 21.6749 52.7152 21.8554 53.3787 21.8554Z" fill="white"/>
<path d="M63.252 24.7728V10.1988H67.2067V24.7728H63.252ZM65.2294 8.31104C64.6189 8.31104 64.0969 8.11303 63.6634 7.717C63.2388 7.32096 63.0264 6.83692 63.0264 6.26488C63.0264 5.69283 63.2388 5.20879 63.6634 4.81276C64.0969 4.41673 64.6145 4.21871 65.2161 4.21871C65.8354 4.21871 66.3574 4.41673 66.782 4.81276C67.2067 5.20879 67.419 5.69283 67.419 6.26488C67.419 6.83692 67.2067 7.32096 66.782 7.717C66.3574 8.11303 65.8398 8.31104 65.2294 8.31104Z" fill="white"/>
<path d="M78.0355 10.1988V13.2218H69.1442V10.1988H78.0355ZM71.2807 6.62131H75.2354V20.456C75.2354 20.9225 75.3371 21.2657 75.5406 21.4857C75.7529 21.6969 76.1024 21.8025 76.589 21.8025C76.7659 21.8025 76.9915 21.7893 77.2658 21.7629C77.5489 21.7277 77.7656 21.6969 77.916 21.6705L78.354 24.6672C77.9559 24.764 77.54 24.83 77.1065 24.8652C76.673 24.9092 76.2528 24.9312 75.8458 24.9312C74.3418 24.9312 73.205 24.588 72.4353 23.9015C71.6656 23.2063 71.2807 22.1942 71.2807 20.8653V6.62131Z" fill="white"/>
<path d="M84.5115 16.4033V24.7728H80.5569V5.10318H84.4584V13.8687H84.0471C84.4452 12.6366 85.0424 11.6817 85.8386 11.0041C86.6437 10.3264 87.6744 9.98758 88.9306 9.98758C89.9481 9.98758 90.8372 10.2076 91.598 10.6476C92.3589 11.0877 92.9472 11.7213 93.363 12.5486C93.7877 13.3759 94 14.3703 94 15.532V24.7728H90.0321V16.2317C90.0321 15.3076 89.7977 14.5904 89.3288 14.0799C88.8599 13.5607 88.2052 13.3011 87.3647 13.3011C86.8073 13.3011 86.3119 13.4243 85.8784 13.6707C85.4537 13.9083 85.1176 14.2559 84.8698 14.7136C84.631 15.1712 84.5115 15.7345 84.5115 16.4033Z" fill="white"/>
<path fill-rule="evenodd" clip-rule="evenodd" d="M12.1309 18.507L18.0805 18.5034L18.1644 12.5897L12.1315 12.5041L12.1309 18.507Z" fill="#F9FEFA"/>
</svg>
