<svg width="24" height="17" viewBox="0 0 24 17" fill="none" xmlns="http://www.w3.org/2000/svg">
<path d="M19.9688 9C20.2812 9 20.5312 9.28125 20.4688 9.5625C20.25 11.3125 19.4062 12.8438 18.1875 13.9688C18 14.1562 17.6875 14.1562 17.5 13.9688L12.5625 9H19.9688ZM19.4688 7C19.5 7.28125 19.25 7.5 18.9688 7.5H12V0.53125C12 0.25 12.2188 0 12.5 0.03125C16.25 0.28125 19.2188 3.25 19.4688 7ZM10.5 9L15.3438 13.875C15.5625 14.0938 15.5625 14.4688 15.3125 14.625C14.125 15.5 12.6562 16 11.0938 16C7.0625 16.0625 3.625 12.7812 3.5 8.78125C3.34375 4.875 6.1875 1.625 9.9375 1.09375C10.2188 1.0625 10.5 1.3125 10.5 1.59375V9Z" fill="#E5E7EB"/>
</svg>
