<svg width="24" height="16" viewBox="0 0 24 16" fill="none" xmlns="http://www.w3.org/2000/svg">
<path d="M19.2188 9.875C19.375 9.96875 19.4375 10.1562 19.4062 10.3125C19.0312 11.4375 18.4688 12.4375 17.6875 13.2812C17.5625 13.4062 17.375 13.4375 17.2188 13.3438L15.875 12.5938C15.3125 13.0625 14.6875 13.4375 14 13.6875V15.2188C14 15.375 13.875 15.5312 13.6875 15.5938C12.5938 15.8125 11.4375 15.8438 10.2812 15.5938C10.125 15.5312 10 15.375 10 15.2188V13.6875C9.28125 13.4375 8.65625 13.0625 8.09375 12.5938L6.75 13.3438C6.59375 13.4375 6.40625 13.4062 6.28125 13.2812C5.53125 12.4375 4.9375 11.4375 4.59375 10.3125C4.53125 10.1562 4.59375 9.96875 4.75 9.875L6.09375 9.125C5.96875 8.375 5.96875 7.65625 6.09375 6.90625L4.75 6.15625C4.59375 6.0625 4.53125 5.875 4.59375 5.71875C4.9375 4.59375 5.53125 3.59375 6.28125 2.75C6.40625 2.625 6.59375 2.59375 6.75 2.6875L8.09375 3.46875C8.65625 2.96875 9.28125 2.59375 10 2.34375V0.8125C10 0.65625 10.0938 0.5 10.2812 0.46875C11.375 0.21875 12.5312 0.1875 13.6875 0.46875C13.875 0.5 14 0.65625 14 0.8125V2.34375C14.6875 2.59375 15.3125 2.96875 15.875 3.4375L17.2188 2.6875C17.375 2.59375 17.5625 2.625 17.6875 2.75C18.4375 3.59375 19.0312 4.59375 19.375 5.71875C19.4375 5.875 19.375 6.0625 19.2188 6.15625L17.875 6.90625C18.0312 7.65625 18.0312 8.375 17.875 9.125L19.2188 9.875ZM12 10.5C13.375 10.5 14.5 9.40625 14.5 8C14.5 6.625 13.375 5.5 12 5.5C10.5938 5.5 9.5 6.625 9.5 8C9.5 9.40625 10.5938 10.5 12 10.5Z" fill="#E5E7EB"/>
</svg>
