<svg width="24" height="16" viewBox="0 0 24 16" fill="none" xmlns="http://www.w3.org/2000/svg">
<path d="M18.3125 2.03125C20.6562 4 20.3125 7.21875 18.6562 8.9375L13.1562 14.5312C12.8438 14.8438 12.4375 15.0312 12 15.0312C11.5312 15.0312 11.125 14.8438 10.8125 14.5312L5.34375 8.9375C3.65625 7.21875 3.3125 4 5.65625 2.03125C7.46875 0.5 10.25 0.71875 12 2.5C13.7188 0.71875 16.5 0.5 18.3125 2.03125ZM17.5625 7.875C18.7188 6.71875 18.9375 4.53125 17.3438 3.15625C16.125 2.15625 14.25 2.3125 13.0938 3.5L12 4.625L10.9062 3.5C9.71875 2.3125 7.84375 2.15625 6.625 3.1875C5.03125 4.53125 5.25 6.71875 6.40625 7.875L11.875 13.4688C11.9688 13.5312 12.0312 13.5312 12.0938 13.4688L17.5625 7.875Z" fill="#E5E7EB"/>
</svg>
