<svg width="24" height="16" viewBox="0 0 24 16" fill="none" xmlns="http://www.w3.org/2000/svg">
<path d="M14.375 10C14.1875 10 14 9.8125 14 9.625V5.40625C14 5.21875 14.1875 5 14.375 5H15.5938C15.7812 5 16 5.21875 16 5.40625V9.625C16 9.8125 15.7812 10 15.5938 10H14.375ZM17.375 10C17.1875 10 17 9.8125 17 9.625V2.40625C17 2.21875 17.1875 2 17.375 2H18.5938C18.7812 2 19 2.21875 19 2.40625V9.625C19 9.8125 18.7812 10 18.5938 10H17.375ZM8.375 10C8.1875 10 8 9.8125 8 9.625V7.40625C8 7.21875 8.1875 7 8.375 7H9.59375C9.78125 7 10 7.21875 10 7.40625V9.625C10 9.8125 9.78125 10 9.59375 10H8.375ZM11.375 10C11.1875 10 11 9.8125 11 9.625V3.40625C11 3.21875 11.1875 3 11.375 3H12.5938C12.7812 3 13 3.21875 13 3.40625V9.625C13 9.8125 12.7812 10 12.5938 10H11.375ZM19.5 12C19.75 12 20 12.25 20 12.5V13.5C20 13.7812 19.75 14 19.5 14H5C4.4375 14 4 13.5625 4 13V2.5C4 2.25 4.21875 2 4.5 2H5.5C5.75 2 6 2.25 6 2.5V12H19.5Z" fill="#E5E7EB"/>
</svg>
