<svg width="15" height="16" viewBox="0 0 15 16" fill="none" xmlns="http://www.w3.org/2000/svg">
<path d="M9.03125 13.9375L8.34375 14.625C8.03125 14.9062 7.5625 14.9062 7.28125 14.625L1.21875 8.53125C0.90625 8.25 0.90625 7.78125 1.21875 7.5L7.28125 1.40625C7.5625 1.125 8.0625 1.125 8.34375 1.40625L9.03125 2.09375C9.34375 2.40625 9.3125 2.875 9.03125 3.1875L5.25 6.75H14.25C14.6562 6.75 15 7.09375 15 7.5V8.5C15 8.9375 14.6562 9.25 14.25 9.25H5.25L9.03125 12.8438C9.3125 13.1562 9.34375 13.625 9.03125 13.9375Z" fill="#9CA3AF"/>
</svg>
