<svg width="22" height="15" viewBox="0 0 22 15" fill="none" xmlns="http://www.w3.org/2000/svg">
<path d="M12.25 0.25C13.207 0.25 14 1.04297 14 2V9.875C14 10.8594 13.207 11.625 12.25 11.625H8.3125L4.89453 14.1953C4.8125 14.25 4.75781 14.25 4.70312 14.25C4.51172 14.25 4.375 14.1406 4.375 13.9219V11.625H1.75C0.765625 11.625 0 10.8594 0 9.875V2C0 1.04297 0.765625 0.25 1.75 0.25H12.25ZM12.6875 9.875V2C12.6875 1.78125 12.4688 1.5625 12.25 1.5625H1.75C1.50391 1.5625 1.3125 1.78125 1.3125 2V9.875C1.3125 10.1211 1.50391 10.3125 1.75 10.3125H5.6875V11.9531L7.51953 10.5859L7.875 10.3125H12.25C12.4688 10.3125 12.6875 10.1211 12.6875 9.875Z" fill="white"/>
</svg>
