<svg width="18" height="18" viewBox="0 0 18 18" fill="none" xmlns="http://www.w3.org/2000/svg">
<g clip-path="url(#clip0_1189_1565)">
<path fill-rule="evenodd" clip-rule="evenodd" d="M12.7299 6.74088C13.1484 5.79947 12.1864 4.83753 11.245 5.25594L7.49478 6.92269C7.2403 7.03581 7.03679 7.23931 6.92368 7.4938L5.25691 11.244C4.83851 12.1854 5.80045 13.1474 6.74186 12.7289L10.4921 11.0622C10.7466 10.9491 10.9501 10.7456 11.0632 10.4911L12.7299 6.74088ZM8.23578 8.2348L10.9632 7.02264L9.75108 9.7501L7.02362 10.9622L8.23578 8.2348Z" fill="white"/>
<path fill-rule="evenodd" clip-rule="evenodd" d="M8.99219 17.2422C13.5485 17.2422 17.2422 13.5485 17.2422 8.99219C17.2422 4.43584 13.5485 0.742188 8.99219 0.742188C4.43584 0.742188 0.742188 4.43584 0.742188 8.99219C0.742188 13.5485 4.43584 17.2422 8.99219 17.2422ZM8.99219 15.7324C5.26968 15.7324 2.25198 12.7147 2.25198 8.99219C2.25198 5.26968 5.26968 2.25198 8.99219 2.25198C12.7147 2.25198 15.7324 5.26968 15.7324 8.99219C15.7324 12.7147 12.7147 15.7324 8.99219 15.7324Z" fill="white"/>
</g>
<defs>
<clipPath id="clip0_1189_1565">
<rect width="18" height="18" fill="white"/>
</clipPath>
</defs>
</svg>
