<svg width="19" height="16" viewBox="0 0 19 16" fill="none" xmlns="http://www.w3.org/2000/svg">
<path d="M15.918 2.03125C18.2617 4 17.918 7.21875 16.2617 8.9375L10.7617 14.5312C10.4492 14.8438 10.043 15.0312 9.60547 15.0312C9.13672 15.0312 8.73047 14.8438 8.41797 14.5312L2.94922 8.9375C1.26172 7.21875 0.917969 4 3.26172 2.03125C5.07422 0.5 7.85547 0.71875 9.60547 2.5C11.3242 0.71875 14.1055 0.5 15.918 2.03125ZM15.168 7.875C16.3242 6.71875 16.543 4.53125 14.9492 3.15625C13.7305 2.15625 11.8555 2.3125 10.6992 3.5L9.60547 4.625L8.51172 3.5C7.32422 2.3125 5.44922 2.15625 4.23047 3.1875C2.63672 4.53125 2.85547 6.71875 4.01172 7.875L9.48047 13.4688C9.57422 13.5312 9.63672 13.5312 9.69922 13.4688L15.168 7.875Z" fill="#D1D5DB"/>
</svg>
