<svg width="17" height="28" viewBox="0 0 17 28" fill="none" xmlns="http://www.w3.org/2000/svg">
<path d="M16.2891 18.0117C16.5 18.2227 16.6055 18.5039 16.6055 18.75C16.5703 19.3477 16.1484 19.875 15.4453 19.875H1.98047C1.27734 19.875 0.855469 19.3477 0.855469 18.75C0.820312 18.5039 0.925781 18.2227 1.13672 18.0117C1.80469 17.2734 3.10547 16.1836 3.10547 12.5625C3.10547 9.85547 5.00391 7.67578 7.60547 7.11328V6.375C7.60547 5.77734 8.09766 5.25 8.73047 5.25C9.32812 5.25 9.82031 5.77734 9.82031 6.375V7.11328C12.4219 7.67578 14.3203 9.85547 14.3203 12.5625C14.3203 16.1836 15.6211 17.2734 16.2891 18.0117ZM3.21094 18.1875H14.2148C13.4766 17.2383 12.668 15.5859 12.6328 12.5977C12.6328 12.5977 12.668 12.5977 12.668 12.5625C12.668 10.418 10.875 8.625 8.73047 8.625C6.55078 8.625 4.79297 10.418 4.79297 12.5625C4.79297 12.5977 4.79297 12.5977 4.79297 12.5977C4.75781 15.5859 3.94922 17.2383 3.21094 18.1875ZM8.73047 23.25C7.46484 23.25 6.48047 22.2656 6.48047 21H10.9453C10.9453 22.2656 9.96094 23.25 8.73047 23.25Z" fill="white"/>
</svg>
