<svg width="15" height="16" viewBox="0 0 15 16" fill="none" xmlns="http://www.w3.org/2000/svg">
<path d="M11.5352 10C13.1914 10 14.5352 11.3438 14.5352 13C14.5352 14.6875 13.1914 16 11.5352 16C9.84766 16 8.53516 14.6875 8.53516 13V13.0312C8.53516 12.7812 8.53516 12.5625 8.59766 12.375L5.37891 10.375C4.87891 10.7812 4.22266 11 3.53516 11C1.84766 11 0.535156 9.6875 0.535156 8C0.535156 6.34375 1.84766 5 3.53516 5C4.22266 5 4.87891 5.25 5.37891 5.65625L8.59766 3.65625C8.53516 3.46875 8.53516 3.25 8.53516 3C8.53516 1.34375 9.84766 0 11.5352 0C13.1914 0 14.5352 1.34375 14.5352 3C14.5352 4.6875 13.1914 6 11.5352 6C10.8164 6 10.1602 5.78125 9.66016 5.375L6.44141 7.375C6.50391 7.5625 6.50391 7.78125 6.50391 8C6.50391 8.25 6.50391 8.46875 6.44141 8.65625L9.66016 10.6562C10.1602 10.25 10.8164 10 11.5352 10Z" fill="#D1D5DB"/>
</svg>
