<svg width="20" height="15" viewBox="0 0 20 15" fill="none" xmlns="http://www.w3.org/2000/svg">
<path d="M19.375 12.5C19.6875 12.5 20 12.8125 20 13.125V14.375C20 14.7266 19.6875 15 19.375 15H1.25C0.546875 15 0 14.4531 0 13.75V0.625C0 0.3125 0.273438 0 0.625 0H1.875C2.1875 0 2.5 0.3125 2.5 0.625V12.5H19.375ZM18.125 1.25C18.4375 1.25 18.75 1.5625 18.7109 1.875V6.52344C18.7109 7.34375 17.7344 7.77344 17.1484 7.1875L15.8594 5.89844L12.1094 9.64844C11.6406 10.1562 10.8203 10.1562 10.3516 9.64844L7.5 6.79688L5.66406 8.59375C5.42969 8.82812 5.03906 8.82812 4.80469 8.59375L3.90625 7.69531C3.67188 7.46094 3.67188 7.07031 3.90625 6.83594L6.60156 4.14062C7.07031 3.63281 7.89062 3.63281 8.35938 4.14062L11.25 6.99219L14.1016 4.14062L12.8125 2.85156C12.2266 2.26562 12.6562 1.25 13.4766 1.25H18.125Z" fill="#6B7280"/>
</svg>
