<svg width="13" height="21" viewBox="0 0 13 21" fill="none" xmlns="http://www.w3.org/2000/svg">
<path d="M9.16406 9.64062C11.4297 10.3047 12.8359 12.7656 11.9766 15.1875C11.3906 16.9062 9.67188 17.9609 7.875 18V19.875C7.875 20.2266 7.5625 20.5 7.25 20.5H6C5.64844 20.5 5.375 20.2266 5.375 19.875V18C4.125 18 2.95312 17.6094 1.97656 16.8281C1.66406 16.5938 1.625 16.1641 1.89844 15.8906L3.26562 14.5625C3.46094 14.3672 3.77344 14.3281 4.04688 14.4844C4.4375 14.7578 4.90625 14.875 5.375 14.875H7.95312C8.57812 14.875 9.125 14.3672 9.125 13.7422C9.125 13.2344 8.77344 12.7656 8.26562 12.6484L4.28125 11.4766C2.52344 10.9688 1.15625 9.48438 1 7.6875C0.765625 5.14844 2.75781 3 5.25781 3H5.375V1.125C5.375 0.8125 5.64844 0.5 6 0.5H7.25C7.5625 0.5 7.875 0.8125 7.875 1.125V3C9.08594 3.03906 10.2969 3.42969 11.2344 4.17188C11.5469 4.44531 11.5859 4.875 11.3125 5.14844L9.94531 6.47656C9.75 6.67188 9.4375 6.71094 9.20312 6.55469C8.8125 6.28125 8.34375 6.125 7.83594 6.125H5.25781C4.63281 6.125 4.125 6.67188 4.125 7.29688C4.125 7.80469 4.4375 8.27344 4.94531 8.39062L9.16406 9.64062Z" fill="#6B7280"/>
</svg>
